<svg height="620" width="620" xmlns:dc="http://purl.org/dc/elements/1.1/" xmlns:cc="http://creativecommons.org/ns#" xmlns:rdf="http://www.w3.org/1999/02/22-rdf-syntax-ns#" xmlns:svg="http://www.w3.org/2000/svg" xmlns="http://www.w3.org/2000/svg">
    <metadata id="metadata8">
        <rdf:RDF>
            <cc:Work rdf:about="">
                <dc:format>image/svg+xml</dc:format>
                <dc:type rdf:resource="http://purl.org/dc/dcmitype/StillImage"/>
            </cc:Work>
        </rdf:RDF>
    </metadata>

    <polygon points="197.5,85 272.5,85 160,310 310,610   235,610    85,310" style="fill:none;stroke:black;stroke-width:20" />
    <polygon points="310,160  385,310  310,460 235,310"                     style="fill:none;stroke:black;stroke-width:20" />
    <polygon points="310,10   385,10   535,310 422.5,535 347.5,535 460,310" style="fill:none;stroke:black;stroke-width:20" />

    <polygon points="235,160   197.5,85  272.5,85"            style="fill:#2b95cf;stroke:#2b95cf;stroke-width:1" />
    <polygon points="197.5,85  160,160   197.5,235 235,160"   style="fill:#3da4df;stroke:#3da4df;stroke-width:1" />
    <polygon points="160,160   122.5,235 160,310   197.5,235" style="fill:#5cc7ed;stroke:#5cc7ed;stroke-width:1" />
    <polygon points="122.5,235  85,310   122.5,385 160,310"   style="fill:#71dafd;stroke:#71dafd;stroke-width:1" />  
    <polygon points="160,310   122.5,385 160,460   197.5,385" style="fill:#5cc7ed;stroke:#5cc7ed;stroke-width:1" />  
    <polygon points="197.5,385 160,460   197.5,535 235,460"   style="fill:#3da4df;stroke:#3da4df;stroke-width:1" />
    <polygon points="235,460   197.5,535 272.5,535"           style="fill:#2b95cf;stroke:#2b95cf;stroke-width:1" />
    <polygon points="235,610   197.5,535 272.5,535"           style="fill:#1c84bb;stroke:#1c84bb;stroke-width:1" />
    <polygon points="272.5,535 235,610   310,610"             style="fill:#136888;stroke:#136888;stroke-width:1" />

    <polygon points="310,160   272.5,235 310,310   347.5,235" style="fill:#3da4df;stroke:#3da4df;stroke-width:1" />
    <polygon points="272.5,235 235,310   272.5,385 310,310"   style="fill:#5cc7ed;stroke:#5cc7ed;stroke-width:1" />
    <polygon points="347.5,235 310,310   347.5,385 385,310"   style="fill:#2b95cf;stroke:#2b95cf;stroke-width:1" />
    <polygon points="310,310   272.5,385 310,460   347.5,385" style="fill:#3da4df;stroke:#3da4df;stroke-width:1" />

    <polygon points="347.5,85  310,10    385,10"              style="fill:#455859;stroke:#455859;stroke-width:1" />
    <polygon points="385,10    347.5,85  422.5,85"            style="fill:#526b6d;stroke:#526b6d;stroke-width:1" />
    <polygon points="385,160   347.5,85  422.5,85"            style="fill:#6f8486;stroke:#6f8486;stroke-width:1" />
    <polygon points="422.5,85  385,160   422.5,235 460,160"   style="fill:#8699a0;stroke:#8699a0;stroke-width:1" />
    <polygon points="460,160   422.5,235 460,310   497.5,235" style="fill:#b1c7ce;stroke:#b1c7ce;stroke-width:1" />
    <polygon points="497.5,235 460,310   497.5,385 535,310"   style="fill:#d0e2e6;stroke:#d0e2e6;stroke-width:1" />
    <polygon points="460,310   422.5,385 460,460   497.5,385" style="fill:#b1c7ce;stroke:#b1c7ce;stroke-width:1" />
    <polygon points="422.5,385 385,460   422.5,535 460,460"   style="fill:#8699a0;stroke:#8699a0;stroke-width:1" />
    <polygon points="385,460   347.5,535 422.5,535"           style="fill:#6f8486;stroke:#6f8486;stroke-width:1" />
    Sorry, your browser does not support inline SVG.
</svg>