<?xml version="1.0" encoding="UTF-8" standalone="no"?>
<svg height="600" width="600" xmlns:dc="http://purl.org/dc/elements/1.1/" xmlns:cc="http://creativecommons.org/ns#" xmlns:rdf="http://www.w3.org/1999/02/22-rdf-syntax-ns#" xmlns:svg="http://www.w3.org/2000/svg" xmlns="http://www.w3.org/2000/svg">
<metadata id="metadata8">
    <rdf:RDF>
        <cc:Work rdf:about="">
            <dc:format>image/svg+xml</dc:format>
            <dc:type rdf:resource="http://purl.org/dc/dcmitype/StillImage"/>
        </cc:Work>
    </rdf:RDF>
</metadata>
  <defs>
    <radialGradient id="gradc1" cx="55%" cy="60%" r="105%" fx="26%" fy="50%">
      <stop offset="50%" style="stop-color:rgb(12,107,59);stop-opacity:0" />
      <stop offset="0%" style="stop-color:#0b492a;stop-opacity:1" />
    </radialGradient>
    
    <radialGradient id="gradc2" cx="60%" cy="60%" r="101%" fx="25%" fy="50%">
      <stop offset="50%" style="stop-color:rgb(12,107,59);stop-opacity:0" />
      <stop offset="0%" style="stop-color:#0b492a;stop-opacity:1" />
    </radialGradient>
    
    <radialGradient id="gradc3" cx="60%" cy="50%" r="101%" fx="25%" fy="50%">
      <stop offset="50%" style="stop-color:rgb(12,107,59);stop-opacity:0" />
      <stop offset="0%" style="stop-color:#0b492a;stop-opacity:1" />
    </radialGradient>
  </defs>
  
  <rect width="600" height="600" style="fill:rgb(12,107,59);" />
  
  <circle cx="290" cy="303" r="300" fill="#0b492a" />
  <circle cx="300" cy="300" r="300" fill="#1ac16d" />
  
  <circle cx="300" cy="120" r="60" fill="rgb(12,107,59)" />
  <ellipse cx="300" cy="120" rx="60" ry="60" fill="url(#gradc1)" />
  
  <circle cx="140" cy="250" r="60" fill="rgb(12,107,59)"/>
  <ellipse cx="140" cy="250" rx="60" ry="60" fill="url(#gradc2)" />
  
  <circle cx="450" cy="380" r="60" fill="rgb(12,107,59)" />
  <ellipse cx="450" cy="380" rx="60" ry="60" fill="url(#gradc3)" />
  
  <path d="M   0   0 q  175  500  650  350" stroke="rgb(12,107,59)" stroke-width="45" fill="none" />
  <path d="M   0   0 q  575  100  425  650" stroke="rgb(12,107,59)" stroke-width="45" fill="none" />
  <path d="M  70 620 q  -50 -550  550 -580" stroke="rgb(12,107,59)" stroke-width="45" fill="none" />
  <path d="M 200 620 q   60 -150  250 -230" stroke="rgb(12,107,59)" stroke-width="45" fill="none" />
  
  <path d="M 190 270 q   90   70  203   92" stroke="#0b492a" stroke-width="5" fill="none" />
  <path d="M  68 102 q   22   47   55   94" stroke="#0b492a" stroke-width="5" fill="none" />
  <path d="M 355 130 q   90   90  109  192" stroke="#0b492a" stroke-width="5" stroke-linecap="round" fill="none" />
  <path d="M 480 430 q    4   60  -13  117" stroke="#0b492a" stroke-width="5" stroke-linecap="round" fill="none" />
  
</svg>