<svg height="620" width="620" xmlns:dc="http://purl.org/dc/elements/1.1/" xmlns:cc="http://creativecommons.org/ns#" xmlns:rdf="http://www.w3.org/1999/02/22-rdf-syntax-ns#" xmlns:svg="http://www.w3.org/2000/svg" xmlns="http://www.w3.org/2000/svg">
    <metadata id="metadata8">
        <rdf:RDF>
            <cc:Work rdf:about="">
                <dc:format>image/svg+xml</dc:format>
                <dc:type rdf:resource="http://purl.org/dc/dcmitype/StillImage"/>
            </cc:Work>
        </rdf:RDF>
    </metadata>
    <defs id="defs6">
        <clipPath id="clipPath16" clipPathUnits="userSpaceOnUse">
           <path id="path18" d="M 0,36 36,36 36,0 0,0 0,36 Z"/>
        </clipPath>
    </defs>
    <rect width="620" height="620" style="fill:#2f3136;" />

    <polygon points="197.5,85 272.5,85 160,310 310,610   235,610    85,310" style="fill:none;stroke:black;stroke-width:20" />
    <polygon points="310,160  385,310  310,460 235,310"                     style="fill:none;stroke:black;stroke-width:20" />
    <polygon points="310,10   385,10   535,310 422.5,535 347.5,535 460,310" style="fill:none;stroke:black;stroke-width:20" />

    <polygon points="235,160   197.5,85  272.5,85"            style="fill:#2b95cf;stroke:#2b95cf;stroke-width:1" />
    <polygon points="197.5,85  160,160   197.5,235 235,160"   style="fill:#3da4df;stroke:#3da4df;stroke-width:1" />
    <polygon points="160,160   122.5,235 160,310   197.5,235" style="fill:#5cc7ed;stroke:#5cc7ed;stroke-width:1" />
    <polygon points="122.5,235  85,310   122.5,385 160,310"   style="fill:#71dafd;stroke:#71dafd;stroke-width:1" />  
    <polygon points="160,310   122.5,385 160,460   197.5,385" style="fill:#5cc7ed;stroke:#5cc7ed;stroke-width:1" />  
    <polygon points="197.5,385 160,460   197.5,535 235,460"   style="fill:#3da4df;stroke:#3da4df;stroke-width:1" />
    <polygon points="235,460   197.5,535 272.5,535"           style="fill:#2b95cf;stroke:#2b95cf;stroke-width:1" />
    <polygon points="235,610   197.5,535 272.5,535"           style="fill:#1c84bb;stroke:#1c84bb;stroke-width:1" />
    <polygon points="272.5,535 235,610   310,610"             style="fill:#136888;stroke:#136888;stroke-width:1" />

    <polygon points="310,160   272.5,235 310,310   347.5,235" style="fill:#3da4df;stroke:#3da4df;stroke-width:1" />
    <polygon points="272.5,235 235,310   272.5,385 310,310"   style="fill:#5cc7ed;stroke:#5cc7ed;stroke-width:1" />
    <polygon points="347.5,235 310,310   347.5,385 385,310"   style="fill:#2b95cf;stroke:#2b95cf;stroke-width:1" />
    <polygon points="310,310   272.5,385 310,460   347.5,385" style="fill:#3da4df;stroke:#3da4df;stroke-width:1" />

    <polygon points="347.5,85  310,10    385,10"              style="fill:#455859;stroke:#455859;stroke-width:1" />
    <polygon points="385,10    347.5,85  422.5,85"            style="fill:#526b6d;stroke:#526b6d;stroke-width:1" />
    <polygon points="385,160   347.5,85  422.5,85"            style="fill:#6f8486;stroke:#6f8486;stroke-width:1" />
    <polygon points="422.5,85  385,160   422.5,235 460,160"   style="fill:#8699a0;stroke:#8699a0;stroke-width:1" />
    <polygon points="460,160   422.5,235 460,310   497.5,235" style="fill:#b1c7ce;stroke:#b1c7ce;stroke-width:1" />
    <polygon points="497.5,235 460,310   497.5,385 535,310"   style="fill:#d0e2e6;stroke:#d0e2e6;stroke-width:1" />
    <polygon points="460,310   422.5,385 460,460   497.5,385" style="fill:#b1c7ce;stroke:#b1c7ce;stroke-width:1" />
    <polygon points="422.5,385 385,460   422.5,535 460,460"   style="fill:#8699a0;stroke:#8699a0;stroke-width:1" />
    <polygon points="385,460   347.5,535 422.5,535"           style="fill:#6f8486;stroke:#6f8486;stroke-width:1" />
   <g transform="matrix(6,0,0,-6,140,495)" id="g10">
      <g id="g12">
         <g clip-path="url(#clipPath16)" id="g14">
            <g transform="translate(18,10)" id="g20">
               <path id="path22" style="fill:#FFFFFF;fill-opacity:1;fill-rule:nonzero;stroke:none" d="m 0,0 c -4.419,0 -8,3.582 -8,8 0,4.419 3.581,8 8,8 C 4.418,16 8,12.419 8,8 8,3.582 4.418,0 0,0 m 16,11 -3.362,0 c -0.324,1.369 -0.863,2.651 -1.582,3.814 l 2.379,2.378 c 0.781,0.782 0.781,2.048 0,2.829 l -1.414,1.414 c -0.782,0.781 -2.047,0.781 -2.829,0 L 6.814,19.056 C 5.65,19.775 4.369,20.314 3,20.638 L 3,24 c 0,1.104 -0.895,2 -2,2 l -2,0 c -1.104,0 -2,-0.896 -2,-2 l 0,-3.362 c -1.369,-0.324 -2.65,-0.863 -3.814,-1.582 l -2.378,2.379 c -0.782,0.781 -2.048,0.781 -2.829,0 l -1.414,-1.414 c -0.781,-0.781 -0.781,-2.048 -10e-4,-2.829 l 2.38,-2.378 C -11.775,13.65 -12.314,12.368 -12.638,11 L -16,11 c -1.104,0 -2,-0.895 -2,-2 l 0,-2 c 0,-1.104 0.896,-2 2,-2 l 3.362,0 c 0.324,-1.368 0.863,-2.65 1.582,-3.813 l -2.38,-2.379 c -0.78,-0.781 -0.78,-2.048 10e-4,-2.829 l 1.414,-1.415 c 0.781,-0.78 2.047,-0.78 2.829,0 l 2.378,2.38 C -5.65,-3.775 -4.369,-4.314 -3,-4.638 L -3,-8 c 0,-1.105 0.896,-2 2,-2 l 2,0 c 1.105,0 2,0.895 2,2 l 0,3.362 c 1.368,0.324 2.65,0.863 3.813,1.582 l 2.379,-2.38 c 0.782,-0.781 2.047,-0.781 2.829,0 l 1.414,1.415 c 0.781,0.781 0.781,2.047 0,2.829 L 11.056,1.186 C 11.775,2.349 12.314,3.631 12.638,5 L 16,5 c 1.105,0 2,0.896 2,2 l 0,2 c 0,1.105 -0.895,2 -2,2"/>
            </g>
         </g>
      </g>
   </g>
   <g transform="matrix(3.5,2,2,-3.5,320,350)" id="g10">
      <g id="g12">
         <g clip-path="url(#clipPath16)" id="g14">
            <g transform="translate(18,10)" id="g20">
               <path id="path22" style="fill:#FFFFFF;fill-opacity:1;fill-rule:nonzero;stroke:none" d="m 0,0 c -4.419,0 -8,3.582 -8,8 0,4.419 3.581,8 8,8 C 4.418,16 8,12.419 8,8 8,3.582 4.418,0 0,0 m 16,11 -3.362,0 c -0.324,1.369 -0.863,2.651 -1.582,3.814 l 2.379,2.378 c 0.781,0.782 0.781,2.048 0,2.829 l -1.414,1.414 c -0.782,0.781 -2.047,0.781 -2.829,0 L 6.814,19.056 C 5.65,19.775 4.369,20.314 3,20.638 L 3,24 c 0,1.104 -0.895,2 -2,2 l -2,0 c -1.104,0 -2,-0.896 -2,-2 l 0,-3.362 c -1.369,-0.324 -2.65,-0.863 -3.814,-1.582 l -2.378,2.379 c -0.782,0.781 -2.048,0.781 -2.829,0 l -1.414,-1.414 c -0.781,-0.781 -0.781,-2.048 -10e-4,-2.829 l 2.38,-2.378 C -11.775,13.65 -12.314,12.368 -12.638,11 L -16,11 c -1.104,0 -2,-0.895 -2,-2 l 0,-2 c 0,-1.104 0.896,-2 2,-2 l 3.362,0 c 0.324,-1.368 0.863,-2.65 1.582,-3.813 l -2.38,-2.379 c -0.78,-0.781 -0.78,-2.048 10e-4,-2.829 l 1.414,-1.415 c 0.781,-0.78 2.047,-0.78 2.829,0 l 2.378,2.38 C -5.65,-3.775 -4.369,-4.314 -3,-4.638 L -3,-8 c 0,-1.105 0.896,-2 2,-2 l 2,0 c 1.105,0 2,0.895 2,2 l 0,3.362 c 1.368,0.324 2.65,0.863 3.813,1.582 l 2.379,-2.38 c 0.782,-0.781 2.047,-0.781 2.829,0 l 1.414,1.415 c 0.781,0.781 0.781,2.047 0,2.829 L 11.056,1.186 C 11.775,2.349 12.314,3.631 12.638,5 L 16,5 c 1.105,0 2,0.896 2,2 l 0,2 c 0,1.105 -0.895,2 -2,2"/>
            </g>
         </g>
      </g>
   </g>
   <g transform="matrix(1,3,3,-1,245,200)" id="g10">
      <g id="g12">
         <g clip-path="url(#clipPath16)" id="g14">
            <g transform="translate(18,10)" id="g20">
               <path id="path22" style="fill:#FFFFFF;fill-opacity:1;fill-rule:nonzero;stroke:none" d="m 0,0 c -4.419,0 -8,3.582 -8,8 0,4.419 3.581,8 8,8 C 4.418,16 8,12.419 8,8 8,3.582 4.418,0 0,0 m 16,11 -3.362,0 c -0.324,1.369 -0.863,2.651 -1.582,3.814 l 2.379,2.378 c 0.781,0.782 0.781,2.048 0,2.829 l -1.414,1.414 c -0.782,0.781 -2.047,0.781 -2.829,0 L 6.814,19.056 C 5.65,19.775 4.369,20.314 3,20.638 L 3,24 c 0,1.104 -0.895,2 -2,2 l -2,0 c -1.104,0 -2,-0.896 -2,-2 l 0,-3.362 c -1.369,-0.324 -2.65,-0.863 -3.814,-1.582 l -2.378,2.379 c -0.782,0.781 -2.048,0.781 -2.829,0 l -1.414,-1.414 c -0.781,-0.781 -0.781,-2.048 -10e-4,-2.829 l 2.38,-2.378 C -11.775,13.65 -12.314,12.368 -12.638,11 L -16,11 c -1.104,0 -2,-0.895 -2,-2 l 0,-2 c 0,-1.104 0.896,-2 2,-2 l 3.362,0 c 0.324,-1.368 0.863,-2.65 1.582,-3.813 l -2.38,-2.379 c -0.78,-0.781 -0.78,-2.048 10e-4,-2.829 l 1.414,-1.415 c 0.781,-0.78 2.047,-0.78 2.829,0 l 2.378,2.38 C -5.65,-3.775 -4.369,-4.314 -3,-4.638 L -3,-8 c 0,-1.105 0.896,-2 2,-2 l 2,0 c 1.105,0 2,0.895 2,2 l 0,3.362 c 1.368,0.324 2.65,0.863 3.813,1.582 l 2.379,-2.38 c 0.782,-0.781 2.047,-0.781 2.829,0 l 1.414,1.415 c 0.781,0.781 0.781,2.047 0,2.829 L 11.056,1.186 C 11.775,2.349 12.314,3.631 12.638,5 L 16,5 c 1.105,0 2,0.896 2,2 l 0,2 c 0,1.105 -0.895,2 -2,2"/>
            </g>
         </g>
      </g>
   </g>
    Sorry, your browser does not support inline SVG.
</svg>